HIERARCHY
ROOT Hips
{
	OFFSET 0.000000 0.000000 0.000000 
	CHANNELS 6 Xposition Yposition Zposition Yrotation Zrotation Xrotation 
	JOINT Lumbar
	{
		OFFSET 0.000000 0.000000 0.000000 
		CHANNELS 3 Zrotation Xrotation Yrotation
		JOINT Neck
		{
			OFFSET 0.000000 0.445665 0.000000 
			CHANNELS 3 Zrotation Xrotation Yrotation
			End Site
			{
				OFFSET 0.000000 0.227535 0.000000 
			}
		}
		JOINT RightShoulder
		{
			OFFSET 0.019635 0.377685 0.194865 
			CHANNELS 3 Zrotation Xrotation Yrotation
			JOINT RightElbow
			{
				OFFSET 0.000000 -0.243375 0.000000 
				CHANNELS 2 Zrotation Yrotation
				JOINT RightWrist
				{
					OFFSET 0.000000 -0.264825 0.000000 
					CHANNELS 2 Zrotation Xrotation
					End Site
					{
						OFFSET 0.006600 -0.176220 0.000990 
					}
				}
			}
		}
		JOINT LeftShoulder
		{
			OFFSET 0.019635 0.377685 -0.194865 
			CHANNELS 3 Zrotation Xrotation Yrotation
			JOINT LeftElbow
			{
				OFFSET 0.000000 -0.243375 0.000000 
				CHANNELS 2 Zrotation Yrotation
				JOINT LeftWrist
				{
					OFFSET 0.000000 -0.264825 0.000000 
					CHANNELS 2 Zrotation Xrotation
					End Site
					{
						OFFSET 0.006600 -0.176220 -0.000990 
					}
				}
			}
		}
	}
	JOINT RightHip
	{
		OFFSET 0.052140 -0.069960 0.075570 
		CHANNELS 3 Zrotation Xrotation Yrotation
		JOINT RightKnee
		{
			OFFSET 0.000000 -0.402270 0.000000 
			CHANNELS 1 Zrotation
			JOINT RightAnkle
			{
				OFFSET 0.000000 -0.404085 0.000000 
				CHANNELS 3 Zrotation Xrotation Yrotation
				End Site
				{
					OFFSET 0.204105 -0.089430 0.008415 
				}
			}
		}
	}
	JOINT LeftHip
	{
		OFFSET 0.052140 -0.069960 -0.075570 
		CHANNELS 3 Zrotation Xrotation Yrotation
		JOINT LeftKnee
		{
			OFFSET 0.000000 -0.402270 0.000000 
			CHANNELS 1 Zrotation
			JOINT LeftAnkle
			{
				OFFSET 0.000000 -0.404085 0.000000 
				CHANNELS 3 Zrotation Xrotation Yrotation
				End Site
				{
					OFFSET 0.204105 -0.089430 -0.008415 
				}
			}
		}
	}
}
MOTION
Frames: 32
Frame Time: 0.02
-0.10655 -0.18718 0.6026 48.96608 -18.77543 -4.14828 43.31624 10.60374 24.74888 3.09708 1.26305 -0.83079 169.88187 -171.02778 -90.01158 137.62436 115.51815 -60.68852 -7.73031 100.17083 42.22382 -56.2693 63.0227 -125.25643 -40.99547 9.06945 55.94329 -9.33293 -16.84571 -70.29799 -5.6988 -4.56544 -2.99736 68.23367 23.87202 -5.63695 -37.15548 -18.35928 4.47112 3.66577
-0.10581 -0.18719 0.60132 49.04842 -18.73585 -4.10537 43.42457 10.57301 24.8903 3.39958 0.62841 -0.83079 169.88187 -171.02778 -90.01158 137.62436 115.51654 -60.54347 -7.71584 99.97622 42.29402 -56.10754 63.21686 -125.26746 -41.10456 9.04768 55.75859 -9.47108 -16.9414 -70.31535 -5.69183 -4.55614 -2.99242 68.1918 23.7113 -5.91986 -37.31504 -18.38083 4.46157 3.66158
-0.10497 -0.18716 0.60008 49.15356 -18.67224 -4.07188 43.53634 10.50981 25.01441 3.66328 0.093 -0.83079 169.88187 -171.02778 -90.01158 137.62436 115.49098 -60.40754 -7.67993 99.7358 42.32759 -55.9438 63.4536 -125.28115 -41.1614 9.01699 55.53065 -9.60126 -17.05962 -70.31871 -5.68572 -4.54762 -2.98827 68.11865 23.51267 -6.29925 -37.45489 -18.40229 4.45417 3.6586
-0.10418 -0.18715 0.59884 49.24815 -18.61872 -4.03536 43.64458 10.4603 25.14583 3.94115 -0.48272 -0.83079 169.88187 -171.02778 -90.01158 137.62436 115.4774 -60.26603 -7.65476 99.49185 42.36196 -55.73012 63.67597 -125.21535 -41.15978 8.9876 55.32369 -9.72655 -17.15776 -70.32699 -5.68 -4.53971 -2.98437 68.05943 23.33779 -6.61915 -37.60133 -18.42281 4.44565 3.65489
-0.10337 -0.18714 0.59753 49.34389 -18.56794 -3.99386 43.76176 10.41475 25.27976 4.23172 -1.07906 -0.83079 169.88187 -171.02778 -90.01158 137.62436 115.45834 -60.13094 -7.62467 99.34085 42.45835 -55.71692 63.87857 -125.45814 -41.48216 8.96975 55.10926 -9.88735 -17.29785 -70.34048 -5.67097 -4.52772 -2.97787 68.00045 23.13534 -7.00603 -37.75787 -18.44755 4.43773 3.65196
-0.10258 -0.18711 0.59636 49.44258 -18.5061 -3.96504 43.86078 10.35347 25.40421 4.48694 -1.60808 -0.83079 169.88187 -171.02779 -90.01158 137.62436 115.4455 -59.98507 -7.60019 98.99592 42.42115 -55.30332 64.13011 -125.08556 -41.14529 8.92678 54.90079 -9.97307 -17.35705 -70.34012 -5.66897 -4.52434 -2.97692 67.93401 22.98097 -7.27719 -37.88845 -18.46348 4.42911 3.64772
-0.10187 -0.18704 0.59553 49.54346 -18.41869 -3.96668 43.90996 10.25611 25.50737 4.65885 -1.98365 -0.83079 169.88187 -171.02779 -90.01158 137.62436 115.45383 -59.80048 -7.59443 98.0409 41.99231 -53.6281 64.52982 -122.77809 -38.75511 8.80384 54.71973 -9.84565 -17.17124 -70.30492 -5.68706 -4.54558 -2.9919 67.85344 22.97295 -7.18935 -37.95457 -18.45467 4.41769 3.63936
-0.10119 -0.18694 0.59484 49.64673 -18.32115 -3.98116 43.9403 10.14409 25.60133 4.7957 -2.2936 -0.83079 169.88187 -171.02779 -90.01158 137.62436 115.46984 -59.60605 -7.59563 96.90706 41.4353 -51.57548 64.97329 -119.88943 -35.74323 8.65784 54.54627 -9.64429 -16.90595 -70.25639 -5.71206 -4.5753 -3.01231 67.76677 23.01388 -6.98408 -37.99472 -18.43699 4.40554 3.62969
-0.1005 -0.18686 0.5941 49.74887 -18.22906 -3.99113 43.97865 10.03935 25.69918 4.94615 -2.62809 -0.83079 169.88187 -171.02779 -90.01158 137.62436 115.48345 -59.42013 -7.59486 95.91368 40.95956 -49.803 65.38119 -117.42848 -33.18494 8.53105 54.36948 -9.48194 -16.68733 -70.21406 -5.73332 -4.60049 -3.0297 67.68385 23.02962 -6.84299 -38.04529 -18.42373 4.39394 3.6208
-0.09979 -0.18678 0.59331 49.85125 -18.13296 -3.99566 44.02012 9.93131 25.79809 5.1062 -2.98076 -0.83079 169.88187 -171.02779 -90.01158 137.62436 115.49099 -59.21664 -7.58775 94.67521 40.3902 -47.58716 65.85584 -114.30084 -29.92753 8.36843 54.19099 -9.29678 -16.42502 -70.17056 -5.75711 -4.62853 -3.04942 67.59584 23.05642 -6.66077 -38.10132 -18.40912 4.38151 3.61121
-0.09914 -0.18668 0.59265 49.95436 -18.0426 -4.01464 44.04974 9.82654 25.89228 5.23699 -3.2821 -0.83079 169.88187 -171.02779 -90.01158 137.62436 115.51412 -59.04832 -7.59648 93.89726 39.97974 -46.18596 66.20249 -112.39386 -27.9481 8.27344 54.01796 -9.14129 -16.2345 -70.1266 -5.77732 -4.65269 -3.06561 67.51723 23.07236 -6.53367 -38.13965 -18.39485 4.37058 3.6027
-0.09865 -0.18657 0.59227 50.05054 -17.97523 -4.06882 44.05832 9.73923 25.98047 5.30792 -3.45122 -0.83079 169.88187 -171.02779 -90.01158 137.62436 115.572 -58.97067 -7.6414 94.5064 40.09373 -47.29531 66.17498 -114.26225 -29.92391 8.38521 53.86245 -9.08876 -16.262 -70.08405 -5.78546 -4.66355 -3.07023 67.46759 23.04629 -6.59882 -38.13895 -18.38677 4.36421 3.59781
-0.09822 -0.18644 0.59201 50.14889 -17.91328 -4.13745 44.05423 9.65495 26.06335 5.34825 -3.5728 -0.83079 169.88187 -171.02779 -90.01158 137.62436 115.64688 -58.93044 -7.70321 95.5732 40.36298 -49.20847 66.01918 -117.33384 -33.16022 8.5634 53.71167 -9.06796 -16.3643 -70.04166 -5.78988 -4.67031 -3.0712 67.42759 23.00786 -6.72088 -38.1207 -18.37874 4.35927 3.59395
-0.09778 -0.18632 0.59171 50.25151 -17.84587 -4.20028 44.05139 9.56629 26.14569 5.39499 -3.72081 -0.83079 169.88187 -171.02779 -90.01158 137.62436 115.71805 -58.87869 -7.76126 96.38215 40.5246 -50.6399 65.92796 -119.67775 -35.63506 8.70156 53.55605 -9.03094 -16.43202 -69.99964 -5.79631 -4.67925 -3.07414 67.38216 22.97527 -6.80893 -38.10835 -18.3687 4.35354 3.58943
-0.0973 -0.18618 0.59135 50.33173 -17.79059 -4.25987 44.06722 9.48986 26.24043 5.47315 -3.84563 -0.83079 169.88187 -171.02779 -90.01158 137.62436 115.77158 -58.80301 -7.80307 97.39041 40.8346 -52.5397 65.81019 -122.74985 -38.86881 8.87967 53.41174 -8.99959 -16.49947 -69.95529 -5.80153 -4.68709 -3.07594 67.34042 22.94322 -6.92727 -38.1041 -18.36683 4.34852 3.58576
-0.0969 -0.18609 0.59115 50.45946 -17.71164 -4.33003 44.04105 9.38876 26.3079 5.4778 -4.00892 -0.83079 169.88187 -171.02779 -90.01158 137.62436 115.86697 -58.78672 -7.88257 98.10075 40.87862 -53.67232 65.71868 -124.61759 -40.84902 8.99166 53.24528 -8.96409 -16.58629 -69.91602 -5.8084 -4.69622 -3.07921 67.29399 22.90674 -6.99765 -38.07884 -18.34794 4.34221 3.58046
-0.09666 -0.18612 0.59131 50.7144 -17.56485 -4.42106 43.90495 9.22001 26.30408 5.29787 -4.28518 -0.83079 169.88187 -171.02779 -90.01157 137.62436 116.06341 -58.92068 -8.06246 97.82405 40.11204 -52.38317 65.71327 -122.70314 -38.89189 8.89607 53.01327 -8.91714 -16.70872 -69.8906 -5.8198 -4.70904 -3.08698 67.22701 22.85892 -6.92153 -38.0027 -18.28332 4.33348 3.57136
-0.09649 -0.1862 0.59163 51.01747 -17.39439 -4.52306 43.72661 9.02623 26.27271 5.04323 -4.60285 -0.83079 169.88187 -171.02779 -90.01157 137.62436 116.30309 -59.11386 -8.27952 97.24227 39.0802 -50.3157 65.74143 -119.56773 -35.66342 8.73338 52.75945 -8.86392 -16.84854 -69.87032 -5.83309 -4.72337 -3.09639 67.15594 22.80734 -6.79599 -37.90559 -18.20147 4.32316 3.56041
-0.09629 -0.18627 0.59191 51.30107 -17.23549 -4.62312 43.56574 8.84318 26.25201 4.8157 -4.90539 -0.83079 169.88187 -171.02779 -90.01157 137.62437 116.53 -59.28321 -8.47929 96.83559 38.19549 -48.67686 65.76613 -117.10131 -33.1309 8.60732 52.51763 -8.80874 -16.9803 -69.84788 -5.84613 -4.73757 -3.10534 67.09025 22.7585 -6.69346 -37.81639 -18.12656 4.31254 3.54963
-0.0961 -0.18631 0.5921 51.57561 -17.07309 -4.71081 43.41156 8.6628 26.23822 4.61564 -5.19152 -0.83079 169.88187 -171.02779 -90.01157 137.62437 116.72927 -59.44155 -8.68157 96.29144 37.20393 -46.75092 65.73814 -114.19709 -30.14594 8.45777 52.26687 -8.77462 -17.11458 -69.82486 -5.85662 -4.74941 -3.11304 67.0102 22.70448 -6.58963 -37.73356 -18.05497 4.30613 3.54161
-0.09589 -0.18641 0.59249 51.87915 -16.91268 -4.82671 43.23378 8.47108 26.20446 4.34145 -5.52122 -0.83079 169.88187 -171.02779 -90.01157 137.62437 116.99512 -59.63549 -8.88692 95.95453 36.36989 -45.22597 65.82759 -111.89618 -27.78143 8.34018 52.02983 -8.69515 -17.24767 -69.80406 -5.87275 -4.76643 -3.12369 66.95875 22.66106 -6.47717 -37.63251 -17.97292 4.29073 3.52752
-0.09562 -0.18664 0.5934 52.26178 -16.76043 -5.01763 42.99949 8.25233 26.11447 3.87748 -5.97045 -0.83079 169.88187 -171.02779 -90.01157 137.62437 117.44413 -59.92081 -9.09306 96.27006 36.03636 -45.0135 66.25002 -111.58539 -27.47303 8.32869 51.83316 -8.48837 -17.36539 -69.78973 -5.90547 -4.79873 -3.14291 66.98898 22.64303 -6.34402 -37.48804 -17.86167 4.24956 3.49605
-0.09533 -0.18692 0.59451 52.66978 -16.61166 -5.23652 42.74339 8.02341 26.00676 3.34249 -6.46045 -0.83079 169.88187 -171.02778 -90.01157 137.62437 117.95731 -60.23822 -9.29996 96.80222 35.87027 -45.22671 66.78678 -111.91607 -27.82431 8.35122 51.65159 -8.23664 -17.48236 -69.77701 -5.94354 -4.83596 -3.16492 67.04768 22.63663 -6.20591 -37.3256 -17.74141 4.19966 3.45875
-0.09504 -0.18718 0.59553 53.05922 -16.46322 -5.44263 42.49833 7.80028 25.91237 2.8421 -6.92611 -0.83079 169.88187 -171.02778 -90.01157 137.62437 118.43382 -60.53589 -9.50636 97.22822 35.62551 -45.22878 67.261 -111.92665 -27.84187 8.35673 51.46491 -8.0078 -17.6045 -69.76266 -5.97824 -4.8701 -3.18515 67.09226 22.62828 -6.07487 -37.17049 -17.62812 4.15457 3.4248
-0.09477 -0.18746 0.59653 53.48053 -16.30554 -5.6494 42.24659 7.57117 25.79496 2.32836 -7.41841 -0.83079 169.88187 -171.02778 -90.01157 137.62437 118.94114 -60.85777 -9.71755 97.67297 35.37982 -45.27056 67.78173 -112.00405 -27.94432 8.36595 51.26992 -7.76864 -17.70713 -69.75285 -6.01699 -4.90789 -3.20761 67.14198 22.60626 -5.91921 -37.01868 -17.50176 4.10572 3.38775
-0.09446 -0.18769 0.59762 53.8402 -16.16867 -5.86135 42.00467 7.35265 25.72141 1.82767 -7.86351 -0.83079 169.88187 -171.02778 -90.01157 137.62438 119.40198 -61.13563 -9.91488 98.13836 35.18257 -45.35118 68.23138 -112.12539 -28.06156 8.37715 51.09629 -7.54002 -17.84969 -69.73317 -6.04853 -4.9392 -3.22604 67.18745 22.61485 -5.81753 -36.85537 -17.40113 4.06285 3.35592
-0.094 -0.18776 0.59887 54.02868 -16.085 -6.08003 41.79097 7.16412 25.77567 1.37131 -8.17528 -0.83079 169.88187 -171.02778 -90.01157 137.62438 119.69124 -61.28736 -10.10506 98.56966 35.05013 -45.34529 68.46467 -112.08244 -27.89817 8.37907 50.97646 -7.35465 -18.1048 -69.69226 -6.05894 -4.95178 -3.23283 67.21741 22.7112 -5.83727 -36.6703 -17.37018 4.03694 3.33876
-0.09349 -0.18777 0.60019 54.15299 -16.02295 -6.30292 41.58892 6.98704 25.87441 0.93268 -8.43657 -0.83079 169.88187 -171.02778 -90.01157 137.62438 119.93549 -61.39263 -10.27589 99.02163 34.96646 -45.38205 68.62073 -112.08844 -27.75899 8.38323 50.878 -7.18095 -18.3995 -69.64013 -6.06187 -4.9576 -3.23543 67.24153 22.83703 -5.91616 -36.47335 -17.36609 4.01764 3.32727
-0.093 -0.18779 0.60147 54.30305 -15.95335 -6.52443 41.38452 6.80604 25.95136 0.49219 -8.71625 -0.83079 169.88187 -171.02778 -90.01157 137.62438 120.2193 -61.51693 -10.43398 99.49216 34.88113 -45.46487 68.80697 -112.16654 -27.72512 8.39106 50.77079 -6.99977 -18.67476 -69.58892 -6.06812 -4.96626 -3.23984 67.26629 22.94516 -5.98839 -36.2783 -17.35225 3.99645 3.31399
-0.09251 -0.18789 0.60279 54.46857 -15.87415 -6.74511 41.16688 6.61933 26.03424 0.02275 -9.0168 -0.83079 169.88187 -171.02778 -90.01157 137.62438 120.42846 -61.65179 -10.68028 99.85708 34.71803 -45.29532 69.01846 -111.88108 -27.23904 8.38074 50.65992 -6.8259 -18.95667 -69.55546 -6.07485 -4.97606 -3.24475 67.30062 23.07108 -5.97908 -36.09742 -17.32813 3.97039 3.29729
-0.09202 -0.18781 0.60405 54.58614 -15.82014 -6.96759 40.97991 6.44728 26.11566 -0.38089 -9.26108 -0.83079 169.88187 -171.02778 -90.01157 137.62438 120.77691 -61.75242 -10.74168 100.43775 34.72246 -45.64413 69.15693 -112.33977 -27.67128 8.4077 50.56171 -6.64055 -19.23343 -69.48228 -6.07876 -4.98185 -3.24761 67.31316 23.16779 -6.14867 -35.8844 -17.33142 3.956 3.28902
-0.09154 -0.18728 0.60518 54.58813 -15.82972 -7.19873 40.87449 6.31385 26.18167 -0.60986 -9.36434 -0.83079 169.88189 -171.0278 -90.01159 137.6244 121.56096 -61.77637 -10.26755 101.66187 35.21006 -47.51353 69.11743 -114.98376 -30.81142 8.54279 50.49194 -6.41724 -19.49207 -69.30272 -6.0765 -4.97791 -3.2456 67.26778 23.16798 -6.84165 -35.58588 -17.40815 3.97352 3.30366
